<?xml version="1.0" standalone="no"?>
<!DOCTYPE svg PUBLIC "-//W3C//DTD SVG 20010904//EN"
 "http://www.w3.org/TR/2001/REC-SVG-20010904/DTD/svg10.dtd">
<svg version="1.0" xmlns="http://www.w3.org/2000/svg"
 width="1080.000000pt" height="1080.000000pt" viewBox="0 0 1080.000000 1080.000000"
 preserveAspectRatio="xMidYMid meet">

<g transform="translate(0.000000,1080.000000) scale(0.100000,-0.100000)"
fill="#30318b" stroke="none">
<path d="M3851 7938 c-179 -310 -346 -599 -371 -643 -94 -161 -166 -285 -630
-1090 -402 -696 -796 -1379 -1135 -1965 -138 -238 -155 -269 -155 -280 0 -7
160 -9 502 -8 l502 3 403 660 c221 363 466 767 545 897 l143 237 430 3 429 3
50 80 c27 44 157 256 288 470 l239 390 -423 9 c-233 4 -425 10 -427 11 -2 2
117 204 264 449 l267 446 1036 2 1035 3 71 102 c39 57 156 225 261 375 104
150 207 299 229 330 22 32 38 59 35 62 -2 2 -737 6 -1634 10 l-1630 7 -324
-563z"/>
<path d="M7263 8046 l-302 -433 19 -59 c10 -32 77 -241 149 -463 73 -222 129
-406 126 -409 -3 -3 -391 0 -863 7 -471 6 -929 11 -1018 11 l-161 0 -286 -469
c-158 -257 -287 -470 -287 -473 0 -3 507 -8 1127 -11 619 -4 1129 -9 1131 -12
2 -2 -93 -165 -213 -362 -120 -197 -236 -389 -259 -426 l-41 -69 -965 8 c-531
5 -994 9 -1028 9 l-64 0 -117 -200 c-65 -110 -178 -301 -251 -425 -168 -283
-183 -310 -179 -314 2 -2 718 -6 1591 -9 l1587 -6 30 52 c101 179 732 1288
776 1365 l54 92 -206 343 c-113 188 -207 347 -210 353 -2 7 11 17 29 22 18 6
218 68 443 138 226 69 411 127 413 129 1 1 -14 47 -34 101 -19 54 -39 110 -44
124 -8 27 -298 851 -385 1095 -29 83 -97 273 -149 424 -53 151 -100 280 -104
287 -5 9 -108 -130 -309 -420z"/>
<path d="M6735 3571 c-101 -26 -156 -122 -126 -221 48 -161 324 -157 359 5 18
83 -11 160 -74 197 -34 20 -117 30 -159 19z m105 -44 c52 -26 75 -121 46 -191
-30 -71 -110 -89 -168 -37 -28 25 -32 35 -35 92 -3 52 0 70 17 97 31 49 88 65
140 39z"/>
<path d="M1530 3556 c0 -8 10 -16 23 -18 21 -3 22 -7 25 -135 l3 -133 -26 0
c-16 0 -25 -6 -25 -15 0 -13 22 -15 139 -15 133 0 141 1 167 24 49 41 35 115
-26 138 l-25 10 27 14 c51 27 50 102 -2 129 -41 21 -280 22 -280 1z m228 -32
c12 -8 22 -26 22 -39 0 -38 -26 -55 -81 -55 l-49 0 0 55 0 55 43 0 c23 0 53
-7 65 -16z m13 -144 c14 -8 19 -21 19 -50 0 -48 -18 -60 -89 -60 l-51 0 0 60
0 60 51 0 c28 0 59 -5 70 -10z"/>
<path d="M1900 3555 c0 -9 9 -15 25 -15 32 0 37 -19 33 -155 -3 -106 -4 -109
-27 -115 -14 -3 -26 -11 -29 -18 -3 -9 18 -12 77 -12 65 0 81 3 81 15 0 9 -9
15 -25 15 l-25 0 1 123 c1 141 2 140 64 -45 48 -142 59 -143 109 -10 20 53 45
115 56 137 l19 40 -2 -120 c-2 -117 -2 -119 -26 -125 -14 -3 -26 -11 -29 -18
-3 -9 20 -12 88 -12 68 0 91 3 88 12 -3 7 -15 15 -29 18 -24 6 -24 7 -24 135
l0 130 28 3 c16 2 27 8 24 15 -2 7 -32 13 -78 15 l-74 3 -40 -105 c-22 -58
-43 -106 -47 -106 -3 0 -22 46 -40 103 l-34 102 -82 3 c-68 2 -82 0 -82 -13z"/>
<path d="M2400 3505 c0 -58 2 -65 20 -65 15 0 20 7 20 25 0 32 33 65 65 65
l26 0 -3 -127 -3 -128 -29 -5 c-16 -3 -31 -11 -34 -17 -3 -10 21 -13 97 -13
83 0 101 3 101 15 0 10 -10 15 -30 15 l-30 0 0 130 c0 130 0 130 23 130 28 0
53 -25 62 -62 4 -16 13 -28 21 -28 11 0 14 16 14 65 l0 65 -160 0 -160 0 0
-65z"/>
<path d="M2910 3555 c0 -8 8 -15 19 -15 33 0 40 -23 40 -125 0 -127 -4 -145
-35 -145 -15 0 -24 -6 -24 -15 0 -12 17 -15 90 -15 71 0 90 3 90 14 0 9 -12
16 -27 18 -27 3 -28 6 -31 61 l-3 58 28 -3 c22 -2 30 -10 38 -35 6 -22 15 -33
27 -33 16 0 18 10 18 85 0 77 -2 85 -19 85 -12 0 -21 -9 -25 -24 -6 -25 -38
-42 -56 -31 -5 3 -10 28 -10 56 l0 49 49 0 c77 0 100 -12 107 -60 5 -30 11
-40 25 -40 17 0 19 8 19 65 l0 65 -160 0 c-136 0 -160 -2 -160 -15z"/>
<path d="M3345 3558 c-18 -53 -88 -247 -95 -265 -6 -13 -18 -23 -30 -23 -11 0
-20 -7 -20 -15 0 -12 15 -15 75 -15 60 0 75 3 75 15 0 9 -9 15 -25 15 -29 0
-33 24 -9 58 12 18 25 22 65 22 44 0 51 -3 59 -26 16 -41 12 -54 -15 -54 -16
0 -25 -6 -25 -15 0 -12 16 -15 85 -15 62 0 85 3 85 13 0 7 -10 17 -21 22 -12
6 -29 30 -39 55 -96 254 -88 240 -126 240 -19 0 -37 -6 -39 -12z m67 -155 c2
-14 -5 -19 -34 -21 -44 -4 -46 2 -21 73 l16 49 18 -42 c10 -23 19 -50 21 -59z"/>
<path d="M3570 3505 c0 -49 3 -65 14 -65 8 0 17 12 21 28 9 37 34 62 62 62 23
0 23 0 23 -130 l0 -130 -30 0 c-20 0 -30 -5 -30 -15 0 -12 17 -15 95 -15 76 0
95 3 95 14 0 9 -12 16 -27 18 l-28 3 -3 128 -3 127 25 0 c31 0 55 -24 63 -61
4 -20 12 -29 24 -29 17 0 19 8 19 65 l0 65 -160 0 -160 0 0 -65z"/>
<path d="M3917 3564 c-10 -11 3 -24 23 -24 27 0 31 -26 28 -155 -3 -106 -4
-109 -27 -115 -14 -3 -26 -11 -29 -18 -3 -9 20 -12 87 -12 74 0 91 3 91 15 0
9 -9 15 -25 15 l-26 0 3 133 c3 128 4 132 26 135 12 2 22 10 22 18 0 11 -18
14 -83 14 -46 0 -87 -3 -90 -6z"/>
<path d="M4130 3556 c0 -8 10 -16 23 -18 22 -3 22 -6 22 -133 0 -127 0 -130
-22 -133 -13 -2 -23 -10 -23 -18 0 -12 16 -14 88 -12 51 2 86 7 85 13 -1 6
-14 11 -28 13 -24 3 -25 7 -25 63 l0 59 75 0 76 0 -3 -57 c-3 -55 -4 -58 -30
-61 -16 -2 -28 -9 -28 -18 0 -11 19 -14 90 -14 73 0 90 3 90 15 0 9 -9 15 -25
15 l-26 0 3 133 c3 128 4 132 26 135 12 2 22 10 22 18 0 11 -19 14 -90 14 -71
0 -90 -3 -90 -14 0 -9 12 -16 28 -18 25 -3 27 -7 30 -55 l3 -53 -76 0 -76 0 3
53 c3 49 5 52 31 55 16 2 27 8 24 15 -2 8 -35 13 -90 15 -71 2 -87 0 -87 -12z"/>
<path d="M4550 3556 c0 -8 10 -16 23 -18 21 -3 22 -8 27 -123 3 -66 9 -128 14
-137 20 -43 125 -61 191 -34 49 21 58 47 65 176 5 110 6 115 28 118 12 2 22
10 22 18 0 11 -17 14 -80 14 -64 0 -80 -3 -80 -15 0 -8 9 -15 20 -15 30 0 40
-31 40 -119 0 -80 -11 -129 -33 -143 -21 -14 -85 -9 -102 8 -13 13 -15 36 -13
132 3 112 4 116 26 122 50 11 19 25 -63 28 -69 2 -85 0 -85 -12z"/>
<path d="M4940 3556 c0 -8 10 -16 23 -18 21 -3 22 -7 25 -135 3 -129 2 -132
-19 -135 -13 -2 -24 -9 -27 -15 -3 -10 32 -13 152 -13 118 0 156 3 157 13 6
95 3 122 -12 125 -12 2 -18 -8 -22 -40 -7 -54 -27 -68 -99 -68 l-59 0 3 133 3
132 28 3 c15 2 27 9 27 18 0 11 -19 14 -90 14 -71 0 -90 -3 -90 -14z"/>
<path d="M5450 3556 c0 -9 11 -16 28 -18 l27 -3 0 -130 c0 -128 0 -129 -24
-135 -14 -3 -26 -11 -29 -19 -3 -10 27 -12 148 -9 146 3 153 4 171 27 34 42
22 103 -28 129 l-22 12 31 30 c24 25 29 36 23 58 -14 60 -32 67 -185 70 -120
3 -140 1 -140 -12z m225 -22 c27 -11 38 -53 20 -80 -13 -20 -24 -24 -65 -24
l-50 0 0 55 0 55 39 0 c22 0 47 -3 56 -6z m27 -161 c24 -21 23 -58 -2 -83 -15
-15 -33 -20 -70 -20 l-50 0 0 60 0 60 52 0 c34 0 58 -6 70 -17z"/>
<path d="M5920 3453 c-66 -181 -67 -183 -89 -183 -12 0 -21 -7 -21 -15 0 -12
16 -15 81 -15 60 0 80 3 77 13 -3 6 -17 13 -32 15 -25 3 -27 7 -21 30 11 43
24 52 77 52 46 0 50 -2 63 -32 16 -39 12 -48 -21 -48 -15 0 -24 -6 -24 -15 0
-12 17 -15 90 -15 92 0 110 9 64 32 -22 11 -36 39 -78 153 l-52 140 -36 3 -35
3 -43 -118z m85 10 c33 -78 32 -83 -14 -83 -23 0 -41 3 -41 7 0 10 33 113 37
113 1 0 10 -17 18 -37z"/>
<path d="M6200 3556 c0 -8 10 -16 23 -18 22 -3 22 -6 22 -133 0 -127 0 -130
-22 -133 -13 -2 -23 -10 -23 -18 0 -11 19 -14 90 -14 71 0 90 3 90 14 0 9 -12
16 -27 18 -27 3 -28 6 -31 61 l-3 58 42 -3 c48 -3 55 -13 64 -80 7 -58 26 -78
69 -78 41 0 66 26 66 69 0 37 -23 39 -28 3 -5 -34 -32 -27 -32 8 0 40 -19 78
-42 86 -17 5 -15 8 14 22 45 23 64 63 46 99 -21 45 -51 53 -190 53 -104 0
-128 -3 -128 -14z m246 -41 c32 -44 5 -77 -70 -83 l-56 -4 0 57 0 57 56 -4
c40 -3 61 -10 70 -23z"/>
<path d="M7010 3556 c0 -8 10 -16 23 -18 21 -3 22 -7 25 -135 l3 -133 -26 0
c-16 0 -25 -6 -25 -15 0 -12 16 -15 85 -15 67 0 85 3 85 14 0 8 -10 16 -22 18
-18 2 -24 10 -26 38 -2 28 3 41 26 63 l30 29 41 -58 c22 -31 41 -61 41 -66 0
-4 -11 -8 -25 -8 -16 0 -25 -6 -25 -15 0 -13 24 -15 155 -15 131 0 155 2 155
15 0 9 -9 15 -25 15 -27 0 -31 13 -15 54 9 24 15 26 65 26 50 0 56 -2 65 -26
16 -41 12 -54 -15 -54 -16 0 -25 -6 -25 -15 0 -12 16 -15 85 -15 69 0 85 3 85
15 0 8 -9 15 -19 15 -19 0 -30 23 -116 253 -17 44 -20 47 -54 47 l-36 0 -49
-140 c-26 -76 -54 -144 -61 -150 -30 -25 -59 -6 -118 78 l-60 83 39 40 c21 21
53 45 71 51 61 22 41 38 -47 38 -61 0 -80 -3 -80 -14 0 -7 10 -16 23 -20 21
-5 18 -9 -33 -61 -72 -71 -82 -71 -78 3 3 50 6 57 26 60 12 2 22 10 22 18 0
11 -18 14 -85 14 -67 0 -85 -3 -85 -14z m571 -122 c20 -51 14 -58 -38 -52 -31
3 -32 16 -7 77 17 39 22 36 45 -25z"/>
<path d="M7770 3556 c0 -8 10 -16 23 -18 22 -3 22 -6 22 -133 0 -127 0 -130
-22 -133 -13 -2 -23 -10 -23 -18 0 -11 18 -14 85 -14 69 0 85 3 85 15 0 9 -9
15 -25 15 -24 0 -25 3 -25 60 l0 61 73 -3 72 -3 0 -55 c0 -53 -1 -55 -27 -58
-16 -2 -28 -9 -28 -18 0 -11 19 -14 90 -14 73 0 90 3 90 15 0 9 -9 15 -25 15
l-26 0 3 133 c3 128 4 132 26 135 12 2 22 10 22 18 0 11 -19 14 -90 14 -71 0
-90 -3 -90 -14 0 -9 12 -16 28 -18 25 -3 27 -7 30 -55 l3 -53 -76 0 -76 0 3
52 c3 45 6 53 26 58 50 11 19 25 -63 28 -69 2 -85 0 -85 -12z"/>
</g>
</svg>
